<mxfile host="app.diagrams.net" modified="2024-05-18T15:09:21.077Z" agent="Mozilla/5.0 (Windows NT 10.0; Win64; x64; rv:125.0) Gecko/20100101 Firefox/125.0" etag="KkQbflqerEaPMmPVJA0Y" version="24.3.1" type="device">
  <diagram name="Page-1" id="d5rYc0Q8RI0yDMcoC0aH">
    <mxGraphModel dx="1257" dy="1771" grid="1" gridSize="10" guides="1" tooltips="1" connect="1" arrows="1" fold="1" page="1" pageScale="1" pageWidth="850" pageHeight="1100" math="0" shadow="0">
      <root>
        <mxCell id="0" />
        <mxCell id="1" parent="0" />
        <mxCell id="4lL5ylZuZq1DZIi4TiYl-27" value="" style="edgeStyle=orthogonalEdgeStyle;rounded=0;orthogonalLoop=1;jettySize=auto;html=1;" edge="1" parent="1" source="4lL5ylZuZq1DZIi4TiYl-1" target="4lL5ylZuZq1DZIi4TiYl-23">
          <mxGeometry relative="1" as="geometry" />
        </mxCell>
        <mxCell id="4lL5ylZuZq1DZIi4TiYl-1" value="" style="ellipse;whiteSpace=wrap;html=1;aspect=fixed;" vertex="1" parent="1">
          <mxGeometry x="470" y="-460" width="40" height="40" as="geometry" />
        </mxCell>
        <mxCell id="4lL5ylZuZq1DZIi4TiYl-5" value="" style="edgeStyle=orthogonalEdgeStyle;rounded=0;orthogonalLoop=1;jettySize=auto;html=1;" edge="1" parent="1" source="4lL5ylZuZq1DZIi4TiYl-2" target="4lL5ylZuZq1DZIi4TiYl-4">
          <mxGeometry relative="1" as="geometry" />
        </mxCell>
        <mxCell id="4lL5ylZuZq1DZIi4TiYl-2" value="&lt;div&gt;Desligar o Timer&lt;br&gt;&lt;/div&gt;&lt;div&gt;&lt;br&gt;&lt;/div&gt;&lt;div&gt;Motor com 0º e 0 voltas&lt;/div&gt;" style="rounded=0;whiteSpace=wrap;html=1;" vertex="1" parent="1">
          <mxGeometry x="430" y="170" width="120" height="60" as="geometry" />
        </mxCell>
        <mxCell id="4lL5ylZuZq1DZIi4TiYl-28" style="edgeStyle=orthogonalEdgeStyle;rounded=0;orthogonalLoop=1;jettySize=auto;html=1;entryX=0.5;entryY=0;entryDx=0;entryDy=0;" edge="1" parent="1" source="4lL5ylZuZq1DZIi4TiYl-4" target="4lL5ylZuZq1DZIi4TiYl-8">
          <mxGeometry relative="1" as="geometry" />
        </mxCell>
        <mxCell id="4lL5ylZuZq1DZIi4TiYl-4" value="&lt;div&gt;&quot;Número de voltas (1 a 10):&lt;/div&gt;&lt;div&gt;&lt;br&gt;&lt;/div&gt;&lt;div&gt;Horário? (1 ou 0)&lt;/div&gt;&lt;div&gt;&lt;br&gt;&lt;/div&gt;&lt;div&gt;Passo-completo? (1 ou 0)&quot;&lt;br&gt;&lt;/div&gt;" style="rounded=0;whiteSpace=wrap;html=1;" vertex="1" parent="1">
          <mxGeometry x="390" y="280" width="200" height="130" as="geometry" />
        </mxCell>
        <mxCell id="4lL5ylZuZq1DZIi4TiYl-10" style="edgeStyle=orthogonalEdgeStyle;rounded=0;orthogonalLoop=1;jettySize=auto;html=1;exitX=1;exitY=0.5;exitDx=0;exitDy=0;entryX=1;entryY=0.5;entryDx=0;entryDy=0;" edge="1" parent="1" source="4lL5ylZuZq1DZIi4TiYl-8" target="4lL5ylZuZq1DZIi4TiYl-12">
          <mxGeometry relative="1" as="geometry">
            <Array as="points">
              <mxPoint x="587" y="590" />
              <mxPoint x="740" y="590" />
              <mxPoint x="740" y="805" />
            </Array>
          </mxGeometry>
        </mxCell>
        <mxCell id="4lL5ylZuZq1DZIi4TiYl-11" value="Caso USR_SW1 for pressionado" style="edgeLabel;html=1;align=center;verticalAlign=middle;resizable=0;points=[];" vertex="1" connectable="0" parent="4lL5ylZuZq1DZIi4TiYl-10">
          <mxGeometry x="-0.2155" y="1" relative="1" as="geometry">
            <mxPoint y="67" as="offset" />
          </mxGeometry>
        </mxCell>
        <mxCell id="4lL5ylZuZq1DZIi4TiYl-13" value="" style="edgeStyle=orthogonalEdgeStyle;rounded=0;orthogonalLoop=1;jettySize=auto;html=1;" edge="1" parent="1" source="4lL5ylZuZq1DZIi4TiYl-8" target="4lL5ylZuZq1DZIi4TiYl-12">
          <mxGeometry relative="1" as="geometry" />
        </mxCell>
        <mxCell id="4lL5ylZuZq1DZIi4TiYl-8" value="&lt;div&gt;Ligar o Timer&lt;/div&gt;&lt;div&gt;&lt;br&gt;&lt;/div&gt;&lt;div&gt;A cada volta completa, decrementar no terminal o número de voltas, sentido de rotação e passo.&lt;/div&gt;&lt;div&gt;&lt;br&gt;&lt;/div&gt;&lt;div&gt;Piscar os leds por 100ms e incrementá-los de acordo com o sentido de rotação a cada 45º&lt;/div&gt;&lt;div&gt;&lt;br&gt;&lt;/div&gt;&lt;div&gt;Desligar o Timer&lt;/div&gt;&lt;div&gt;Desligar Leds&lt;/div&gt;" style="whiteSpace=wrap;html=1;" vertex="1" parent="1">
          <mxGeometry x="392.5" y="520" width="195" height="210" as="geometry" />
        </mxCell>
        <mxCell id="4lL5ylZuZq1DZIi4TiYl-14" style="edgeStyle=orthogonalEdgeStyle;rounded=0;orthogonalLoop=1;jettySize=auto;html=1;exitX=0;exitY=0.5;exitDx=0;exitDy=0;entryX=0;entryY=0.5;entryDx=0;entryDy=0;" edge="1" parent="1" source="4lL5ylZuZq1DZIi4TiYl-12" target="4lL5ylZuZq1DZIi4TiYl-2">
          <mxGeometry relative="1" as="geometry">
            <Array as="points">
              <mxPoint x="290" y="800" />
              <mxPoint x="290" y="200" />
            </Array>
          </mxGeometry>
        </mxCell>
        <mxCell id="4lL5ylZuZq1DZIi4TiYl-15" value="Se digitar *" style="edgeLabel;html=1;align=center;verticalAlign=middle;resizable=0;points=[];" vertex="1" connectable="0" parent="4lL5ylZuZq1DZIi4TiYl-14">
          <mxGeometry x="0.0218" y="4" relative="1" as="geometry">
            <mxPoint as="offset" />
          </mxGeometry>
        </mxCell>
        <mxCell id="4lL5ylZuZq1DZIi4TiYl-12" value="&lt;div&gt;Após terminar, escrever &quot;FIM&quot;&lt;/div&gt;&lt;div&gt;&lt;br&gt;&lt;/div&gt;&lt;div&gt;Desligar o Timer&lt;/div&gt;&lt;div&gt;Desligar Leds&lt;br&gt;&lt;/div&gt;" style="whiteSpace=wrap;html=1;" vertex="1" parent="1">
          <mxGeometry x="425" y="770" width="130" height="100" as="geometry" />
        </mxCell>
        <mxCell id="4lL5ylZuZq1DZIi4TiYl-21" value="" style="edgeStyle=orthogonalEdgeStyle;rounded=0;orthogonalLoop=1;jettySize=auto;html=1;" edge="1" parent="1" source="4lL5ylZuZq1DZIi4TiYl-16" target="4lL5ylZuZq1DZIi4TiYl-18">
          <mxGeometry relative="1" as="geometry" />
        </mxCell>
        <mxCell id="4lL5ylZuZq1DZIi4TiYl-16" value="Inicializar UART" style="whiteSpace=wrap;html=1;" vertex="1" parent="1">
          <mxGeometry x="430" y="-100" width="120" height="60" as="geometry" />
        </mxCell>
        <mxCell id="4lL5ylZuZq1DZIi4TiYl-20" value="" style="edgeStyle=orthogonalEdgeStyle;rounded=0;orthogonalLoop=1;jettySize=auto;html=1;" edge="1" parent="1" source="4lL5ylZuZq1DZIi4TiYl-17" target="4lL5ylZuZq1DZIi4TiYl-16">
          <mxGeometry relative="1" as="geometry" />
        </mxCell>
        <mxCell id="4lL5ylZuZq1DZIi4TiYl-17" value="Inicializar Timer" style="whiteSpace=wrap;html=1;" vertex="1" parent="1">
          <mxGeometry x="430" y="-190" width="120" height="60" as="geometry" />
        </mxCell>
        <mxCell id="4lL5ylZuZq1DZIi4TiYl-30" value="" style="edgeStyle=orthogonalEdgeStyle;rounded=0;orthogonalLoop=1;jettySize=auto;html=1;" edge="1" parent="1" source="4lL5ylZuZq1DZIi4TiYl-18" target="4lL5ylZuZq1DZIi4TiYl-29">
          <mxGeometry relative="1" as="geometry" />
        </mxCell>
        <mxCell id="4lL5ylZuZq1DZIi4TiYl-18" value="Inicializar GPIO" style="whiteSpace=wrap;html=1;" vertex="1" parent="1">
          <mxGeometry x="430" y="-10" width="120" height="60" as="geometry" />
        </mxCell>
        <mxCell id="4lL5ylZuZq1DZIi4TiYl-25" value="" style="edgeStyle=orthogonalEdgeStyle;rounded=0;orthogonalLoop=1;jettySize=auto;html=1;" edge="1" parent="1" source="4lL5ylZuZq1DZIi4TiYl-23" target="4lL5ylZuZq1DZIi4TiYl-24">
          <mxGeometry relative="1" as="geometry" />
        </mxCell>
        <mxCell id="4lL5ylZuZq1DZIi4TiYl-23" value="Inicializa clock" style="whiteSpace=wrap;html=1;" vertex="1" parent="1">
          <mxGeometry x="430" y="-380" width="120" height="60" as="geometry" />
        </mxCell>
        <mxCell id="4lL5ylZuZq1DZIi4TiYl-26" value="" style="edgeStyle=orthogonalEdgeStyle;rounded=0;orthogonalLoop=1;jettySize=auto;html=1;" edge="1" parent="1" source="4lL5ylZuZq1DZIi4TiYl-24" target="4lL5ylZuZq1DZIi4TiYl-17">
          <mxGeometry relative="1" as="geometry" />
        </mxCell>
        <mxCell id="4lL5ylZuZq1DZIi4TiYl-24" value="Inicializa SysTick" style="whiteSpace=wrap;html=1;" vertex="1" parent="1">
          <mxGeometry x="430" y="-290" width="120" height="60" as="geometry" />
        </mxCell>
        <mxCell id="4lL5ylZuZq1DZIi4TiYl-31" value="" style="edgeStyle=orthogonalEdgeStyle;rounded=0;orthogonalLoop=1;jettySize=auto;html=1;" edge="1" parent="1" source="4lL5ylZuZq1DZIi4TiYl-29" target="4lL5ylZuZq1DZIi4TiYl-2">
          <mxGeometry relative="1" as="geometry" />
        </mxCell>
        <mxCell id="4lL5ylZuZq1DZIi4TiYl-29" value="Inicializar interrupção" style="whiteSpace=wrap;html=1;" vertex="1" parent="1">
          <mxGeometry x="430" y="80" width="120" height="60" as="geometry" />
        </mxCell>
      </root>
    </mxGraphModel>
  </diagram>
</mxfile>
